# xmcd
#
# Track frame offsets: 
#        183
#        12208
#        27200
#        50665
#        67695
#        81370
#        94998
#        109798
#        123213
#        131858
#        176288
#        190433
#        209945
#        221233
#        238928
#        265045
#
# Disc length: 3853 seconds
#
# Revision: 0
# Processed by: cddbd v1.5.2PL0 Copyright (c) Steve Scherf et al.
# Submitted via: ExactAudioCopy v1.1
#
DISCID=ee0f0b10
DTITLE=The Rolling Stones - No Expectations
DYEAR=1972
DGENRE=Rock
TTITLE0=No Expectations
TTITLE1=Dear Doctor
TTITLE2=Sister Morphine
TTITLE3=Jumping Jack Flash
TTITLE4=Child Of The Moon
TTITLE5=Honky Tonk Women
TTITLE6=In Another Land
TTITLE7=We Love You
TTITLE8=Dandelion
TTITLE9=Citadel
TTITLE10=Jumping Jack Flash (Live)
TTITLE11=Street Fighting Man (Live)
TTITLE12=Bye Bye Johnny (Live)
TTITLE13=Under My Thumb (Live)
TTITLE14=Love In Vain (Live)
TTITLE15=I'm Free (Live)
EXTD=
EXTT0=
EXTT1=
EXTT2=
EXTT3=
EXTT4=
EXTT5=
EXTT6=
EXTT7=
EXTT8=
EXTT9=
EXTT10=
EXTT11=
EXTT12=
EXTT13=
EXTT14=
EXTT15=
PLAYORDER=
